<svg width="1000" height="898" viewBox="0 0 1000 898" fill="none" xmlns="http://www.w3.org/2000/svg">
<path d="M393.272 61.6197C440.706 -20.5399 559.294 -20.5399 606.729 61.6197L981.803 711.268C1029.24 793.427 969.944 896.127 875.074 896.127H124.926C30.0559 896.127 -29.2377 793.427 18.1972 711.268L393.272 61.6197Z" fill="#F2C043"/>
<path d="M478.655 156.69C488.142 140.258 511.859 140.258 521.346 156.69L856.778 737.676C866.265 754.108 854.407 774.648 835.433 774.648H164.568C145.594 774.648 133.735 754.108 143.222 737.676L478.655 156.69Z" fill="#F2C043" stroke="#4B39F2" stroke-width="49.2958"/>
<path d="M498.123 181.021C612.348 181.022 706.864 268.693 713.837 379.823C736.237 388.291 752.533 409.825 752.533 435.147C752.533 460.093 736.726 481.133 714.978 489.839C707.337 520.126 680.828 542.986 649.024 546.243L596.474 681.22L596.47 681.23L524.447 865.71L524.448 865.711C522.547 870.582 519.194 875.393 514.2 878.786C509.3 882.116 503.458 883.617 498.123 883.617C492.589 883.617 487.036 882.011 482.289 878.786C477.295 875.393 473.941 870.583 472.04 865.711V865.712L400.021 681.236L347.233 546.244C315.423 542.985 289.124 520.07 281.512 489.851C259.718 481.162 243.955 460.102 243.955 435.147C243.955 409.826 260.25 388.293 282.648 379.824C289.605 268.713 383.808 181.021 498.123 181.021Z" fill="#F2C043" stroke="#F2C043" stroke-width="25.2818"/>
<path fill-rule="evenodd" clip-rule="evenodd" d="M500.538 193.662C389.691 193.662 299.264 281.035 297.322 389.451C275.666 393.585 259.007 412.585 259.007 435.152C259.007 456.892 274.401 475.12 294.897 480.13C299.023 510.458 325.639 534.008 357.462 534.008C357.796 534.008 358.099 534.013 358.432 534.008L414.208 676.641L486.231 861.126C487.352 864.001 489.244 866.6 491.808 868.342C494.372 870.085 497.43 870.988 500.538 870.988C503.647 870.988 506.947 870.085 509.511 868.342C512.074 866.6 513.966 864.001 515.088 861.126L587.111 676.641L642.644 534.008C642.977 534.013 643.28 534.008 643.614 534.008C675.446 534.008 702.296 510.489 706.422 480.13C726.879 475.092 742.312 456.864 742.312 435.152C742.312 412.585 725.652 393.585 703.996 389.451C702.055 281.035 611.315 193.662 500.538 193.662ZM512.178 248.502C512.743 248.472 513.31 248.472 513.875 248.502C514.36 248.48 514.846 248.48 515.331 248.502C568.486 251.112 613.341 285.015 631.004 331.965C631.394 332.739 631.719 333.543 631.974 334.371C632.085 334.927 632.165 335.489 632.214 336.054C632.497 339.133 631.839 342.225 630.325 344.928C628.811 347.631 626.512 349.819 623.727 351.208C621.843 352.174 619.78 352.747 617.664 352.891C614.295 353.075 610.958 352.164 608.158 350.298C605.357 348.431 603.246 345.711 602.144 342.549C588.804 307.087 554.655 281.292 513.874 279.29C509.757 279.513 505.72 278.105 502.651 275.376C499.581 272.647 497.73 268.82 497.505 264.737C497.28 260.655 498.699 256.651 501.451 253.606C504.202 250.561 508.062 248.726 512.178 248.502ZM405.235 512.602C413.376 521.809 424.237 528.577 436.518 531.844C436.595 531.844 436.696 532.067 436.758 532.082C441.538 533.291 446.567 533.934 452.035 534.007L422.208 611.938L388.742 525.829C395.001 522.334 400.54 517.908 405.235 512.602ZM500.538 512.602C508.175 521.245 518.29 527.885 529.638 531.363L460.768 710.796L443.065 665.577L438.943 654.994L489.868 522.223C493.842 519.404 497.327 516.228 500.538 512.602ZM596.083 512.602C600.785 517.918 606.326 522.317 612.573 525.83L558.011 665.577L500.538 812.78L477.501 753.851L562.375 532.565C575.638 529.563 587.423 522.406 596.083 512.602Z" fill="#4B39F2"/>
<path d="M512.178 248.502C512.743 248.472 513.31 248.472 513.875 248.502C514.36 248.48 514.846 248.48 515.331 248.502C568.486 251.112 613.341 285.015 631.004 331.965C631.394 332.739 631.719 333.543 631.974 334.371C632.085 334.927 632.165 335.489 632.214 336.054C632.497 339.133 631.839 342.225 630.325 344.928C628.811 347.631 626.512 349.819 623.727 351.208C621.843 352.174 619.78 352.747 617.664 352.891C614.295 353.075 610.958 352.164 608.158 350.298C605.357 348.431 603.246 345.711 602.144 342.549C588.804 307.087 554.655 281.292 513.874 279.29C509.757 279.513 505.72 278.105 502.651 275.376C499.581 272.647 497.73 268.82 497.505 264.737C497.28 260.655 498.699 256.651 501.451 253.606C504.202 250.561 508.062 248.726 512.178 248.502Z" fill="#4B39F2"/>
</svg>
